STARTFONT 2.1
COMMENT Recovered from arc.ast's:BIGFNT AST (MIT CADR AST source recovered from ARC!!!)
FONT MIT-CADR-BIGFNT
SIZE 20 72 72
FONTBOUNDINGBOX 12 20 0 -4
STARTPROPERTIES 2
FONT_ASCENT 16
FONT_DESCENT 4
ENDPROPERTIES
CHARS 98
STARTCHAR C000B
ENCODING -1 11
SWIDTH 600 0
DWIDTH 12 0
BBX 10 20 1 -4
BITMAP
0000
0000
0C00
1E00
3F00
6D80
CCC0
8C40
0C00
0C00
0C00
0C00
0C00
0C00
0C00
0C00
0000
0000
0000
0000
ENDCHAR
STARTCHAR C0018
ENCODING -1 24
SWIDTH 600 0
DWIDTH 12 0
BBX 10 20 1 -4
BITMAP
0000
0000
0000
0000
0000
1000
3000
6000
FFC0
FFC0
6000
3000
1000
0000
0000
0000
0000
0000
0000
0000
ENDCHAR
STARTCHAR C0019
ENCODING -1 25
SWIDTH 600 0
DWIDTH 12 0
BBX 10 20 1 -4
BITMAP
0000
0000
0000
0000
0000
0600
0300
0180
FFC0
FFC0
0180
0300
0600
0000
0000
0000
0000
0000
0000
0000
ENDCHAR
STARTCHAR C0020
ENCODING -1 32
SWIDTH 600 0
DWIDTH 12 0
BBX 1 20 0 -4
BITMAP
00
00
00
00
00
00
00
00
00
00
00
00
00
00
00
00
00
00
00
00
ENDCHAR
STARTCHAR C0021
ENCODING -1 33
SWIDTH 600 0
DWIDTH 12 0
BBX 2 20 5 -4
BITMAP
00
00
C0
C0
C0
C0
C0
C0
C0
C0
C0
C0
00
00
C0
C0
00
00
00
00
ENDCHAR
STARTCHAR C0022
ENCODING -1 34
SWIDTH 600 0
DWIDTH 12 0
BBX 6 20 3 -4
BITMAP
00
CC
CC
CC
CC
CC
00
00
00
00
00
00
00
00
00
00
00
00
00
00
ENDCHAR
STARTCHAR C0023
ENCODING -1 35
SWIDTH 600 0
DWIDTH 12 0
BBX 8 20 2 -4
BITMAP
00
00
1B
1B
36
7F
7F
36
36
6C
6C
FE
FE
6C
D8
D8
00
00
00
00
ENDCHAR
STARTCHAR C0024
ENCODING -1 36
SWIDTH 600 0
DWIDTH 12 0
BBX 7 20 2 -4
BITMAP
00
00
10
10
7C
FE
D6
D0
70
1C
16
D6
FE
7C
10
10
00
00
00
00
ENDCHAR
STARTCHAR C0025
ENCODING -1 37
SWIDTH 600 0
DWIDTH 12 0
BBX 9 20 2 -4
BITMAP
0000
0000
6180
9300
9300
9600
6600
0C00
0C00
1800
1800
3300
3480
6480
6480
C300
0000
0000
0000
0000
ENDCHAR
STARTCHAR C0026
ENCODING -1 38
SWIDTH 600 0
DWIDTH 12 0
BBX 8 20 2 -4
BITMAP
00
00
38
7C
C6
C6
68
38
70
D0
D8
CB
CE
C4
7E
33
00
00
00
00
ENDCHAR
STARTCHAR C0027
ENCODING -1 39
SWIDTH 600 0
DWIDTH 12 0
BBX 4 20 4 -4
BITMAP
00
00
60
F0
F0
30
60
C0
80
00
00
00
00
00
00
00
00
00
00
00
ENDCHAR
STARTCHAR C0028
ENCODING -1 40
SWIDTH 600 0
DWIDTH 12 0
BBX 5 20 4 -4
BITMAP
00
00
18
30
70
60
E0
C0
C0
C0
C0
E0
60
70
30
18
00
00
00
00
ENDCHAR
STARTCHAR C0029
ENCODING -1 41
SWIDTH 600 0
DWIDTH 12 0
BBX 5 20 3 -4
BITMAP
00
00
C0
60
70
30
38
18
18
18
18
38
30
70
60
C0
00
00
00
00
ENDCHAR
STARTCHAR C002A
ENCODING -1 42
SWIDTH 600 0
DWIDTH 12 0
BBX 8 20 2 -4
BITMAP
00
00
00
00
18
99
DB
66
3C
66
DB
99
18
00
00
00
00
00
00
00
ENDCHAR
STARTCHAR C002B
ENCODING -1 43
SWIDTH 600 0
DWIDTH 12 0
BBX 8 20 2 -4
BITMAP
00
00
00
00
00
18
18
18
FF
FF
18
18
18
00
00
00
00
00
00
00
ENDCHAR
STARTCHAR C002C
ENCODING -1 44
SWIDTH 600 0
DWIDTH 12 0
BBX 4 20 4 -4
BITMAP
00
00
00
00
00
00
00
00
00
00
00
60
F0
F0
30
60
C0
80
00
00
ENDCHAR
STARTCHAR C002D
ENCODING -1 45
SWIDTH 600 0
DWIDTH 12 0
BBX 8 20 2 -4
BITMAP
00
00
00
00
00
00
00
00
FF
FF
00
00
00
00
00
00
00
00
00
00
ENDCHAR
STARTCHAR C002E
ENCODING -1 46
SWIDTH 600 0
DWIDTH 12 0
BBX 4 20 4 -4
BITMAP
00
00
00
00
00
00
00
00
00
00
00
00
60
F0
F0
60
00
00
00
00
ENDCHAR
STARTCHAR C002F
ENCODING -1 47
SWIDTH 600 0
DWIDTH 12 0
BBX 8 20 2 -4
BITMAP
00
00
03
03
06
06
0C
0C
18
18
30
30
60
60
C0
C0
00
00
00
00
ENDCHAR
STARTCHAR C0030
ENCODING -1 48
SWIDTH 600 0
DWIDTH 12 0
BBX 9 20 2 -4
BITMAP
0000
0000
0000
1C00
3E00
7780
6300
6300
6700
6B00
7300
6300
6300
F700
3E00
1C00
0000
0000
0000
0000
ENDCHAR
STARTCHAR C0031
ENCODING -1 49
SWIDTH 600 0
DWIDTH 12 0
BBX 8 20 2 -4
BITMAP
00
00
00
18
38
78
18
18
18
18
18
18
18
18
FF
FF
00
00
00
00
ENDCHAR
STARTCHAR C0032
ENCODING -1 50
SWIDTH 600 0
DWIDTH 12 0
BBX 8 20 2 -4
BITMAP
00
00
00
3C
7E
C3
C3
03
06
0C
18
30
60
C0
FF
FF
00
00
00
00
ENDCHAR
STARTCHAR C0033
ENCODING -1 51
SWIDTH 600 0
DWIDTH 12 0
BBX 8 20 2 -4
BITMAP
00
00
00
3C
7E
C3
C3
03
06
1C
06
03
C3
C3
7E
3C
00
00
00
00
ENDCHAR
STARTCHAR C0034
ENCODING -1 52
SWIDTH 600 0
DWIDTH 12 0
BBX 8 20 2 -4
BITMAP
00
00
00
06
0C
18
30
66
C6
C6
FF
FF
06
06
06
06
00
00
00
00
ENDCHAR
STARTCHAR C0035
ENCODING -1 53
SWIDTH 600 0
DWIDTH 12 0
BBX 8 20 2 -4
BITMAP
00
00
00
FF
FF
C0
C0
C0
FC
7E
03
03
C3
C3
7E
3C
00
00
00
00
ENDCHAR
STARTCHAR C0036
ENCODING -1 54
SWIDTH 600 0
DWIDTH 12 0
BBX 8 20 2 -4
BITMAP
00
00
00
3C
7E
C3
C0
C0
DC
FE
E7
C3
C3
E7
7E
3C
00
00
00
00
ENDCHAR
STARTCHAR C0037
ENCODING -1 55
SWIDTH 600 0
DWIDTH 12 0
BBX 8 20 2 -4
BITMAP
00
00
00
FF
FF
03
06
06
0C
18
18
30
30
60
60
60
00
00
00
00
ENDCHAR
STARTCHAR C0038
ENCODING -1 56
SWIDTH 600 0
DWIDTH 12 0
BBX 7 20 2 -4
BITMAP
00
00
00
38
7C
C6
C6
C6
6C
38
6C
C6
C6
C6
7C
38
00
00
00
00
ENDCHAR
STARTCHAR C0039
ENCODING -1 57
SWIDTH 600 0
DWIDTH 12 0
BBX 8 20 2 -4
BITMAP
00
00
00
3C
7E
E7
C3
C3
E7
7F
3B
03
03
C3
7E
3C
00
00
00
00
ENDCHAR
STARTCHAR C003A
ENCODING -1 58
SWIDTH 600 0
DWIDTH 12 0
BBX 4 20 4 -4
BITMAP
00
00
00
00
60
F0
F0
60
00
00
60
F0
F0
60
00
00
00
00
00
00
ENDCHAR
STARTCHAR C003B
ENCODING -1 59
SWIDTH 600 0
DWIDTH 12 0
BBX 4 20 4 -4
BITMAP
00
00
00
00
60
F0
F0
60
00
00
00
60
F0
F0
30
60
C0
80
00
00
ENDCHAR
STARTCHAR C003C
ENCODING -1 60
SWIDTH 600 0
DWIDTH 12 0
BBX 8 20 2 -4
BITMAP
00
00
00
00
00
03
0E
38
E0
E0
38
0E
03
00
00
00
00
00
00
00
ENDCHAR
STARTCHAR C003D
ENCODING -1 61
SWIDTH 600 0
DWIDTH 12 0
BBX 8 20 2 -4
BITMAP
00
00
00
00
00
00
FF
FF
00
00
FF
FF
00
00
00
00
00
00
00
00
ENDCHAR
STARTCHAR C003E
ENCODING -1 62
SWIDTH 600 0
DWIDTH 12 0
BBX 8 20 2 -4
BITMAP
00
00
00
00
00
C0
70
1C
07
07
1C
70
C0
00
00
00
00
00
00
00
ENDCHAR
STARTCHAR C003F
ENCODING -1 63
SWIDTH 600 0
DWIDTH 12 0
BBX 8 20 2 -4
BITMAP
00
00
3C
7E
C3
C3
03
06
0C
18
30
30
00
00
30
30
00
00
00
00
ENDCHAR
STARTCHAR C0040
ENCODING -1 64
SWIDTH 600 0
DWIDTH 12 0
BBX 8 20 2 -4
BITMAP
00
00
00
18
7E
C3
81
99
BD
A5
A5
9E
80
C3
7E
18
00
00
00
00
ENDCHAR
STARTCHAR C0041
ENCODING -1 65
SWIDTH 600 0
DWIDTH 12 0
BBX 8 20 2 -4
BITMAP
00
00
3C
7E
E7
C3
C3
C3
C3
FF
FF
C3
C3
C3
C3
C3
00
00
00
00
ENDCHAR
STARTCHAR C0042
ENCODING -1 66
SWIDTH 600 0
DWIDTH 12 0
BBX 8 20 2 -4
BITMAP
00
00
FC
FE
C7
C3
C3
C6
FE
FE
C6
C3
C3
C7
FE
FC
00
00
00
00
ENDCHAR
STARTCHAR C0043
ENCODING -1 67
SWIDTH 600 0
DWIDTH 12 0
BBX 8 20 2 -4
BITMAP
00
00
3C
7E
E7
C3
C0
C0
C0
C0
C0
C0
C3
E7
7E
3C
00
00
00
00
ENDCHAR
STARTCHAR C0044
ENCODING -1 68
SWIDTH 600 0
DWIDTH 12 0
BBX 8 20 2 -4
BITMAP
00
00
FC
FE
C7
C3
C3
C3
C3
C3
C3
C3
C3
C7
FE
FC
00
00
00
00
ENDCHAR
STARTCHAR C0045
ENCODING -1 69
SWIDTH 600 0
DWIDTH 12 0
BBX 8 20 2 -4
BITMAP
00
00
FF
FF
C0
C0
C0
C0
FC
FC
C0
C0
C0
C0
FF
FF
00
00
00
00
ENDCHAR
STARTCHAR C0046
ENCODING -1 70
SWIDTH 600 0
DWIDTH 12 0
BBX 8 20 2 -4
BITMAP
00
00
FF
FF
C0
C0
C0
C0
FC
FC
C0
C0
C0
C0
C0
C0
00
00
00
00
ENDCHAR
STARTCHAR C0047
ENCODING -1 71
SWIDTH 600 0
DWIDTH 12 0
BBX 8 20 2 -4
BITMAP
00
00
3C
7E
E7
C3
C0
C0
C0
CF
CF
C3
C3
E7
7E
3C
00
00
00
00
ENDCHAR
STARTCHAR C0048
ENCODING -1 72
SWIDTH 600 0
DWIDTH 12 0
BBX 8 20 2 -4
BITMAP
00
00
C3
C3
C3
C3
C3
C3
FF
FF
C3
C3
C3
C3
C3
C3
00
00
00
00
ENDCHAR
STARTCHAR C0049
ENCODING -1 73
SWIDTH 600 0
DWIDTH 12 0
BBX 6 20 3 -4
BITMAP
00
00
FC
FC
30
30
30
30
30
30
30
30
30
30
FC
FC
00
00
00
00
ENDCHAR
STARTCHAR C004A
ENCODING -1 74
SWIDTH 600 0
DWIDTH 12 0
BBX 8 20 2 -4
BITMAP
00
00
03
03
03
03
03
03
03
03
03
03
C3
C3
7E
3C
00
00
00
00
ENDCHAR
STARTCHAR C004B
ENCODING -1 75
SWIDTH 600 0
DWIDTH 12 0
BBX 8 20 2 -4
BITMAP
00
00
C3
C3
C6
CC
D8
F0
E0
E0
F0
D8
CC
C6
C3
C3
00
00
00
00
ENDCHAR
STARTCHAR C004C
ENCODING -1 76
SWIDTH 600 0
DWIDTH 12 0
BBX 8 20 2 -4
BITMAP
00
00
C0
C0
C0
C0
C0
C0
C0
C0
C0
C0
C0
C0
FF
FF
00
00
00
00
ENDCHAR
STARTCHAR C004D
ENCODING -1 77
SWIDTH 600 0
DWIDTH 12 0
BBX 8 20 2 -4
BITMAP
00
00
C3
E7
FF
DB
DB
DB
C3
C3
C3
C3
C3
C3
C3
C3
00
00
00
00
ENDCHAR
STARTCHAR C004E
ENCODING -1 78
SWIDTH 600 0
DWIDTH 12 0
BBX 8 20 2 -4
BITMAP
00
00
C3
E3
E3
F3
F3
D3
D3
CB
CB
CF
CF
C7
C7
C3
00
00
00
00
ENDCHAR
STARTCHAR C004F
ENCODING -1 79
SWIDTH 600 0
DWIDTH 12 0
BBX 8 20 2 -4
BITMAP
00
00
3C
7E
E7
C3
C3
C3
C3
C3
C3
C3
C3
E7
7E
3C
00
00
00
00
ENDCHAR
STARTCHAR C0050
ENCODING -1 80
SWIDTH 600 0
DWIDTH 12 0
BBX 8 20 2 -4
BITMAP
00
00
FC
FE
C7
C3
C3
C7
FE
FC
C0
C0
C0
C0
C0
C0
00
00
00
00
ENDCHAR
STARTCHAR C0051
ENCODING -1 81
SWIDTH 600 0
DWIDTH 12 0
BBX 8 20 2 -4
BITMAP
00
00
3C
7E
E7
C3
C3
C3
C3
C3
C3
C3
DB
EF
7E
3F
03
00
00
00
ENDCHAR
STARTCHAR C0052
ENCODING -1 82
SWIDTH 600 0
DWIDTH 12 0
BBX 8 20 2 -4
BITMAP
00
00
FC
FE
C7
C3
C3
C7
FE
FC
D8
CC
CC
C6
C6
C3
00
00
00
00
ENDCHAR
STARTCHAR C0053
ENCODING -1 83
SWIDTH 600 0
DWIDTH 12 0
BBX 8 20 2 -4
BITMAP
00
00
3C
7E
E7
C3
C0
E0
7C
3E
07
03
C3
E7
7E
3C
00
00
00
00
ENDCHAR
STARTCHAR C0054
ENCODING -1 84
SWIDTH 600 0
DWIDTH 12 0
BBX 8 20 2 -4
BITMAP
00
00
FF
FF
18
18
18
18
18
18
18
18
18
18
18
18
00
00
00
00
ENDCHAR
STARTCHAR C0055
ENCODING -1 85
SWIDTH 600 0
DWIDTH 12 0
BBX 8 20 2 -4
BITMAP
00
00
C3
C3
C3
C3
C3
C3
C3
C3
C3
C3
C3
E7
7E
3C
00
00
00
00
ENDCHAR
STARTCHAR C0056
ENCODING -1 86
SWIDTH 600 0
DWIDTH 12 0
BBX 8 20 2 -4
BITMAP
00
00
C3
C3
C3
C3
C3
C3
66
66
66
24
3C
3C
18
18
00
00
00
00
ENDCHAR
STARTCHAR C0057
ENCODING -1 87
SWIDTH 600 0
DWIDTH 12 0
BBX 8 20 2 -4
BITMAP
00
00
C3
C3
C3
C3
C3
C3
C3
C3
DB
DB
DB
FF
E7
C3
00
00
00
00
ENDCHAR
STARTCHAR C0058
ENCODING -1 88
SWIDTH 600 0
DWIDTH 12 0
BBX 8 20 2 -4
BITMAP
00
00
C3
C3
66
66
3C
3C
18
18
3C
3C
66
66
C3
C3
00
00
00
00
ENDCHAR
STARTCHAR C0059
ENCODING -1 89
SWIDTH 600 0
DWIDTH 12 0
BBX 8 20 2 -4
BITMAP
00
00
C3
C3
C3
C3
66
66
3C
3C
18
18
18
18
18
18
00
00
00
00
ENDCHAR
STARTCHAR C005A
ENCODING -1 90
SWIDTH 600 0
DWIDTH 12 0
BBX 8 20 2 -4
BITMAP
00
00
FF
FF
01
03
06
0C
18
18
30
60
C0
80
FF
FF
00
00
00
00
ENDCHAR
STARTCHAR C005B
ENCODING -1 91
SWIDTH 600 0
DWIDTH 12 0
BBX 5 20 4 -4
BITMAP
00
00
F8
F8
C0
C0
C0
C0
C0
C0
C0
C0
C0
C0
F8
F8
00
00
00
00
ENDCHAR
STARTCHAR C005C
ENCODING -1 92
SWIDTH 600 0
DWIDTH 12 0
BBX 8 20 2 -4
BITMAP
00
00
C0
C0
60
60
30
30
18
18
0C
0C
06
06
03
03
00
00
00
00
ENDCHAR
STARTCHAR C005D
ENCODING -1 93
SWIDTH 600 0
DWIDTH 12 0
BBX 5 20 3 -4
BITMAP
00
00
F8
F8
18
18
18
18
18
18
18
18
18
18
F8
F8
00
00
00
00
ENDCHAR
STARTCHAR C005E
ENCODING -1 94
SWIDTH 600 0
DWIDTH 12 0
BBX 8 20 2 -4
BITMAP
00
00
18
3C
66
DB
18
18
18
18
18
18
18
18
18
18
00
00
00
00
ENDCHAR
STARTCHAR C005F
ENCODING -1 95
SWIDTH 600 0
DWIDTH 12 0
BBX 8 20 2 -4
BITMAP
00
00
00
00
00
10
30
60
FF
FF
60
30
10
00
00
00
00
00
00
00
ENDCHAR
STARTCHAR C0061
ENCODING -1 97
SWIDTH 600 0
DWIDTH 12 0
BBX 8 20 2 -4
BITMAP
00
00
00
00
00
00
3C
7E
C3
03
7B
FF
C7
C7
FF
7B
00
00
00
00
ENDCHAR
STARTCHAR C0062
ENCODING -1 98
SWIDTH 600 0
DWIDTH 12 0
BBX 8 20 2 -4
BITMAP
00
00
C0
C0
C0
C0
DC
FE
E7
C3
C3
C3
C3
E7
FE
DC
00
00
00
00
ENDCHAR
STARTCHAR C0063
ENCODING -1 99
SWIDTH 600 0
DWIDTH 12 0
BBX 8 20 2 -4
BITMAP
00
00
00
00
00
00
3C
7E
E3
C0
C0
C0
C0
E3
7E
3C
00
00
00
00
ENDCHAR
STARTCHAR C0064
ENCODING -1 100
SWIDTH 600 0
DWIDTH 12 0
BBX 8 20 2 -4
BITMAP
00
00
03
03
03
03
3B
7F
E7
C3
C3
C3
C3
E7
7F
3B
00
00
00
00
ENDCHAR
STARTCHAR C0065
ENCODING -1 101
SWIDTH 600 0
DWIDTH 12 0
BBX 8 20 2 -4
BITMAP
00
00
00
00
00
00
3C
7E
C3
C3
FF
FF
C0
C3
7F
3E
00
00
00
00
ENDCHAR
STARTCHAR C0066
ENCODING -1 102
SWIDTH 600 0
DWIDTH 12 0
BBX 8 20 2 -4
BITMAP
00
00
1C
3E
63
60
60
60
F8
F8
60
60
60
60
60
60
00
00
00
00
ENDCHAR
STARTCHAR C0067
ENCODING -1 103
SWIDTH 600 0
DWIDTH 12 0
BBX 8 20 2 -4
BITMAP
00
00
00
00
00
00
3B
7F
E7
C3
C3
C3
C3
E7
7F
3B
03
03
7E
3C
ENDCHAR
STARTCHAR C0068
ENCODING -1 104
SWIDTH 600 0
DWIDTH 12 0
BBX 8 20 2 -4
BITMAP
00
00
C0
C0
C0
C0
DC
FE
E7
C3
C3
C3
C3
C3
C3
C3
00
00
00
00
ENDCHAR
STARTCHAR C0069
ENCODING -1 105
SWIDTH 600 0
DWIDTH 12 0
BBX 2 20 5 -4
BITMAP
00
00
00
C0
C0
00
00
C0
C0
C0
C0
C0
C0
C0
C0
C0
00
00
00
00
ENDCHAR
STARTCHAR C006A
ENCODING -1 106
SWIDTH 600 0
DWIDTH 12 0
BBX 7 20 2 -4
BITMAP
00
00
00
06
06
00
00
06
06
06
06
06
06
06
06
06
06
C6
7C
38
ENDCHAR
STARTCHAR C006B
ENCODING -1 107
SWIDTH 600 0
DWIDTH 12 0
BBX 8 20 2 -4
BITMAP
00
00
C0
C0
C0
C3
C6
CC
D8
F0
E0
F0
D8
CC
C6
C3
00
00
00
00
ENDCHAR
STARTCHAR C006C
ENCODING -1 108
SWIDTH 600 0
DWIDTH 12 0
BBX 2 20 5 -4
BITMAP
00
00
C0
C0
C0
C0
C0
C0
C0
C0
C0
C0
C0
C0
C0
C0
00
00
00
00
ENDCHAR
STARTCHAR C006D
ENCODING -1 109
SWIDTH 600 0
DWIDTH 12 0
BBX 8 20 2 -4
BITMAP
00
00
00
00
00
00
DA
7F
DB
DB
DB
DB
DB
DB
DB
00
00
00
00
00
ENDCHAR
STARTCHAR C006E
ENCODING -1 110
SWIDTH 600 0
DWIDTH 12 0
BBX 8 20 2 -4
BITMAP
00
00
00
00
00
00
DC
FE
E7
C3
C3
C3
C3
C3
C3
C3
00
00
00
00
ENDCHAR
STARTCHAR C006F
ENCODING -1 111
SWIDTH 600 0
DWIDTH 12 0
BBX 8 20 2 -4
BITMAP
00
00
00
00
00
00
3C
7E
E7
C3
C3
C3
C3
E7
7E
3C
00
00
00
00
ENDCHAR
STARTCHAR C0070
ENCODING -1 112
SWIDTH 600 0
DWIDTH 12 0
BBX 8 20 2 -4
BITMAP
00
00
00
00
00
00
DC
FE
E7
C3
C3
C3
C3
E7
FE
DC
C0
C0
C0
C0
ENDCHAR
STARTCHAR C0071
ENCODING -1 113
SWIDTH 600 0
DWIDTH 12 0
BBX 8 20 2 -4
BITMAP
00
00
00
00
00
00
3B
7F
E7
C3
C3
C3
C3
E7
7F
3B
03
03
03
03
ENDCHAR
STARTCHAR C0072
ENCODING -1 114
SWIDTH 600 0
DWIDTH 12 0
BBX 8 20 2 -4
BITMAP
00
00
00
00
00
00
DC
FE
E3
C0
C0
C0
C0
C0
C0
C0
00
00
00
00
ENDCHAR
STARTCHAR C0073
ENCODING -1 115
SWIDTH 600 0
DWIDTH 12 0
BBX 8 20 2 -4
BITMAP
00
00
00
00
00
00
7E
FF
C3
C0
7C
3E
03
C3
FF
7E
00
00
00
00
ENDCHAR
STARTCHAR C0074
ENCODING -1 116
SWIDTH 600 0
DWIDTH 12 0
BBX 8 20 2 -4
BITMAP
00
00
30
30
30
FC
FC
30
30
30
30
30
30
33
3E
1C
00
00
00
00
ENDCHAR
STARTCHAR C0075
ENCODING -1 117
SWIDTH 600 0
DWIDTH 12 0
BBX 8 20 2 -4
BITMAP
00
00
00
00
00
00
C3
C3
C3
C3
C3
C3
C3
E7
7F
3B
00
00
00
00
ENDCHAR
STARTCHAR C0076
ENCODING -1 118
SWIDTH 600 0
DWIDTH 12 0
BBX 8 20 2 -4
BITMAP
00
00
00
00
00
00
C3
C3
C3
C3
66
66
66
3C
18
18
00
00
00
00
ENDCHAR
STARTCHAR C0077
ENCODING -1 119
SWIDTH 600 0
DWIDTH 12 0
BBX 8 20 2 -4
BITMAP
00
00
00
00
00
00
C3
C3
C3
C3
C3
DB
DB
FF
E7
C3
00
00
00
00
ENDCHAR
STARTCHAR C0078
ENCODING -1 120
SWIDTH 600 0
DWIDTH 12 0
BBX 8 20 2 -4
BITMAP
00
00
00
00
00
00
C3
C3
66
66
18
18
66
66
C3
C3
00
00
00
00
ENDCHAR
STARTCHAR C0079
ENCODING -1 121
SWIDTH 600 0
DWIDTH 12 0
BBX 8 20 2 -4
BITMAP
00
00
00
00
00
00
C3
C3
C3
C3
C3
C3
C3
E7
7F
3B
03
03
7E
3C
ENDCHAR
STARTCHAR C007A
ENCODING -1 122
SWIDTH 600 0
DWIDTH 12 0
BBX 8 20 2 -4
BITMAP
00
00
00
00
00
00
FF
FF
06
0C
18
30
60
C0
FF
FF
00
00
00
00
ENDCHAR
STARTCHAR C007B
ENCODING -1 123
SWIDTH 600 0
DWIDTH 12 0
BBX 6 20 3 -4
BITMAP
00
00
1C
30
60
30
30
30
E0
E0
30
30
30
60
30
1C
00
00
00
00
ENDCHAR
STARTCHAR C007C
ENCODING -1 124
SWIDTH 600 0
DWIDTH 12 0
BBX 2 20 5 -4
BITMAP
C0
C0
C0
C0
C0
C0
C0
C0
C0
C0
C0
C0
C0
C0
C0
C0
C0
C0
C0
C0
ENDCHAR
STARTCHAR C007D
ENCODING -1 125
SWIDTH 600 0
DWIDTH 12 0
BBX 6 20 3 -4
BITMAP
00
00
E0
30
18
30
30
30
1C
1C
30
30
30
18
30
E0
00
00
00
00
ENDCHAR
STARTCHAR C007E
ENCODING -1 126
SWIDTH 600 0
DWIDTH 12 0
BBX 12 20 0 -4
BITMAP
FFF0
8010
8010
8010
8010
8010
8010
8010
8010
8010
8010
8010
8010
8010
8010
8010
8010
8010
8010
FFF0
ENDCHAR
STARTCHAR C007F
ENCODING -1 127
SWIDTH 600 0
DWIDTH 12 0
BBX 12 20 0 -4
BITMAP
FFF0
FFF0
FFF0
FFF0
FFF0
FFF0
FFF0
FFF0
FFF0
FFF0
FFF0
FFF0
FFF0
FFF0
FFF0
FFF0
FFF0
FFF0
FFF0
FFF0
ENDCHAR
ENDFONT
